<mxfile host="app.diagrams.net" modified="2020-10-11T18:26:40.190Z" agent="5.0 (Windows NT 10.0; Win64; x64) AppleWebKit/537.36 (KHTML, like Gecko) Chrome/85.0.4183.121 Safari/537.36" etag="iAKMBgEeRE2OcndpLdMx" version="13.7.9" type="github" pages="6">
  <diagram id="6qZdqKzIR4faVvSMc95i" name="Diagramme de contexte">
    <mxGraphModel dx="1422" dy="762" grid="1" gridSize="10" guides="1" tooltips="1" connect="1" arrows="1" fold="1" page="1" pageScale="1" pageWidth="413" pageHeight="583" math="0" shadow="0">
      <root>
        <mxCell id="RWlKZhXdQBKwz26QEh67-0" />
        <mxCell id="RWlKZhXdQBKwz26QEh67-1" parent="RWlKZhXdQBKwz26QEh67-0" />
        <mxCell id="RWlKZhXdQBKwz26QEh67-2" value="" style="rounded=0;whiteSpace=wrap;html=1;" vertex="1" parent="RWlKZhXdQBKwz26QEh67-1">
          <mxGeometry x="259" y="202" width="249" height="140" as="geometry" />
        </mxCell>
        <mxCell id="RWlKZhXdQBKwz26QEh67-3" value="Client" style="shape=umlActor;verticalLabelPosition=bottom;verticalAlign=top;html=1;outlineConnect=0;" vertex="1" parent="RWlKZhXdQBKwz26QEh67-1">
          <mxGeometry x="70" y="252" width="30" height="60" as="geometry" />
        </mxCell>
        <mxCell id="RWlKZhXdQBKwz26QEh67-11" value="Mafia moldave" style="text;html=1;strokeColor=none;fillColor=none;align=center;verticalAlign=middle;whiteSpace=wrap;rounded=0;" vertex="1" parent="RWlKZhXdQBKwz26QEh67-1">
          <mxGeometry x="276" y="222" width="40" height="20" as="geometry" />
        </mxCell>
        <mxCell id="RWlKZhXdQBKwz26QEh67-12" value="Tueur" style="shape=umlActor;verticalLabelPosition=bottom;verticalAlign=top;html=1;outlineConnect=0;" vertex="1" parent="RWlKZhXdQBKwz26QEh67-1">
          <mxGeometry x="646" y="252" width="30" height="60" as="geometry" />
        </mxCell>
        <mxCell id="RWlKZhXdQBKwz26QEh67-15" value="" style="endArrow=classic;startArrow=classic;html=1;exitX=1;exitY=0.3333333333333333;exitDx=0;exitDy=0;exitPerimeter=0;entryX=0;entryY=0.5;entryDx=0;entryDy=0;" edge="1" parent="RWlKZhXdQBKwz26QEh67-1" source="RWlKZhXdQBKwz26QEh67-3" target="RWlKZhXdQBKwz26QEh67-2">
          <mxGeometry width="50" height="50" relative="1" as="geometry">
            <mxPoint x="170" y="310" as="sourcePoint" />
            <mxPoint x="220" y="260" as="targetPoint" />
          </mxGeometry>
        </mxCell>
        <mxCell id="RWlKZhXdQBKwz26QEh67-16" value="" style="endArrow=classic;startArrow=classic;html=1;exitX=1;exitY=0.5;exitDx=0;exitDy=0;entryX=0;entryY=0.3333333333333333;entryDx=0;entryDy=0;entryPerimeter=0;" edge="1" parent="RWlKZhXdQBKwz26QEh67-1" source="RWlKZhXdQBKwz26QEh67-2" target="RWlKZhXdQBKwz26QEh67-12">
          <mxGeometry width="50" height="50" relative="1" as="geometry">
            <mxPoint x="550" y="310" as="sourcePoint" />
            <mxPoint x="600" y="260" as="targetPoint" />
          </mxGeometry>
        </mxCell>
        <mxCell id="RWlKZhXdQBKwz26QEh67-17" value="Bitcoin" style="shape=umlActor;verticalLabelPosition=bottom;verticalAlign=top;html=1;outlineConnect=0;" vertex="1" parent="RWlKZhXdQBKwz26QEh67-1">
          <mxGeometry x="440" y="30" width="30" height="60" as="geometry" />
        </mxCell>
        <mxCell id="RWlKZhXdQBKwz26QEh67-19" value="" style="endArrow=classic;startArrow=classic;html=1;entryX=0;entryY=0.3333333333333333;entryDx=0;entryDy=0;entryPerimeter=0;" edge="1" parent="RWlKZhXdQBKwz26QEh67-1">
          <mxGeometry width="50" height="50" relative="1" as="geometry">
            <mxPoint x="455" y="90" as="sourcePoint" />
            <mxPoint x="454.5" y="202" as="targetPoint" />
          </mxGeometry>
        </mxCell>
      </root>
    </mxGraphModel>
  </diagram>
  <diagram id="jgiNzztEq73qrjmz9ciZ" name="Diagramme de package">
    <mxGraphModel dx="1185" dy="635" grid="1" gridSize="10" guides="1" tooltips="1" connect="1" arrows="1" fold="1" page="1" pageScale="1" pageWidth="413" pageHeight="583" math="0" shadow="0">
      <root>
        <mxCell id="8Fz3NjQw74w9vF0sKTEy-0" />
        <mxCell id="8Fz3NjQw74w9vF0sKTEy-1" parent="8Fz3NjQw74w9vF0sKTEy-0" />
        <mxCell id="8Fz3NjQw74w9vF0sKTEy-2" value="" style="rounded=0;whiteSpace=wrap;html=1;" vertex="1" parent="8Fz3NjQw74w9vF0sKTEy-1">
          <mxGeometry x="280" y="100" width="260" height="320" as="geometry" />
        </mxCell>
        <mxCell id="8Fz3NjQw74w9vF0sKTEy-4" value="gestion achats" style="shape=folder;fontStyle=1;spacingTop=10;tabWidth=40;tabHeight=14;tabPosition=left;html=1;" vertex="1" parent="8Fz3NjQw74w9vF0sKTEy-1">
          <mxGeometry x="345" y="290" width="130" height="60" as="geometry" />
        </mxCell>
        <mxCell id="8Fz3NjQw74w9vF0sKTEy-5" value="Client" style="shape=umlActor;verticalLabelPosition=bottom;verticalAlign=top;html=1;outlineConnect=0;" vertex="1" parent="8Fz3NjQw74w9vF0sKTEy-1">
          <mxGeometry x="170" y="150" width="30" height="60" as="geometry" />
        </mxCell>
        <mxCell id="8Fz3NjQw74w9vF0sKTEy-8" value="gestion contact" style="shape=folder;fontStyle=1;spacingTop=10;tabWidth=40;tabHeight=14;tabPosition=left;html=1;" vertex="1" parent="8Fz3NjQw74w9vF0sKTEy-1">
          <mxGeometry x="345" y="170" width="130" height="60" as="geometry" />
        </mxCell>
        <mxCell id="8Fz3NjQw74w9vF0sKTEy-9" value="Tueur" style="shape=umlActor;verticalLabelPosition=bottom;verticalAlign=top;html=1;outlineConnect=0;" vertex="1" parent="8Fz3NjQw74w9vF0sKTEy-1">
          <mxGeometry x="170" y="290" width="30" height="60" as="geometry" />
        </mxCell>
        <mxCell id="d-zBxgzcS17iaYaVX-g--0" value="Bitcoin" style="shape=umlActor;verticalLabelPosition=bottom;verticalAlign=top;html=1;outlineConnect=0;" vertex="1" parent="8Fz3NjQw74w9vF0sKTEy-1">
          <mxGeometry x="660" y="280" width="30" height="60" as="geometry" />
        </mxCell>
        <mxCell id="d-zBxgzcS17iaYaVX-g--1" value="" style="endArrow=none;html=1;exitX=1;exitY=0.3333333333333333;exitDx=0;exitDy=0;exitPerimeter=0;entryX=0;entryY=0;entryDx=0;entryDy=25.5;entryPerimeter=0;" edge="1" parent="8Fz3NjQw74w9vF0sKTEy-1" source="8Fz3NjQw74w9vF0sKTEy-9" target="8Fz3NjQw74w9vF0sKTEy-4">
          <mxGeometry width="50" height="50" relative="1" as="geometry">
            <mxPoint x="400" y="210" as="sourcePoint" />
            <mxPoint x="450" y="160" as="targetPoint" />
          </mxGeometry>
        </mxCell>
        <mxCell id="d-zBxgzcS17iaYaVX-g--2" value="" style="endArrow=none;html=1;exitX=0;exitY=0;exitDx=130;exitDy=25.5;exitPerimeter=0;entryX=0;entryY=0.3333333333333333;entryDx=0;entryDy=0;entryPerimeter=0;" edge="1" parent="8Fz3NjQw74w9vF0sKTEy-1" source="8Fz3NjQw74w9vF0sKTEy-4" target="d-zBxgzcS17iaYaVX-g--0">
          <mxGeometry width="50" height="50" relative="1" as="geometry">
            <mxPoint x="540" y="310" as="sourcePoint" />
            <mxPoint x="740" y="310" as="targetPoint" />
          </mxGeometry>
        </mxCell>
        <mxCell id="d-zBxgzcS17iaYaVX-g--3" value="" style="endArrow=none;html=1;exitX=1;exitY=0.3333333333333333;exitDx=0;exitDy=0;exitPerimeter=0;entryX=0;entryY=0;entryDx=0;entryDy=37;entryPerimeter=0;" edge="1" parent="8Fz3NjQw74w9vF0sKTEy-1" target="8Fz3NjQw74w9vF0sKTEy-8">
          <mxGeometry width="50" height="50" relative="1" as="geometry">
            <mxPoint x="200" y="170" as="sourcePoint" />
            <mxPoint x="345" y="175.5" as="targetPoint" />
          </mxGeometry>
        </mxCell>
        <mxCell id="d-zBxgzcS17iaYaVX-g--4" value="" style="endArrow=none;html=1;exitX=0.5;exitY=0.5;exitDx=0;exitDy=0;exitPerimeter=0;" edge="1" parent="8Fz3NjQw74w9vF0sKTEy-1" source="8Fz3NjQw74w9vF0sKTEy-5">
          <mxGeometry width="50" height="50" relative="1" as="geometry">
            <mxPoint x="210" y="180" as="sourcePoint" />
            <mxPoint x="345" y="304" as="targetPoint" />
          </mxGeometry>
        </mxCell>
        <mxCell id="d-zBxgzcS17iaYaVX-g--5" value="" style="endArrow=none;html=1;exitX=0.75;exitY=0.1;exitDx=0;exitDy=0;exitPerimeter=0;entryX=0;entryY=0;entryDx=0;entryDy=60;entryPerimeter=0;" edge="1" parent="8Fz3NjQw74w9vF0sKTEy-1" source="8Fz3NjQw74w9vF0sKTEy-9" target="8Fz3NjQw74w9vF0sKTEy-8">
          <mxGeometry width="50" height="50" relative="1" as="geometry">
            <mxPoint x="400" y="210" as="sourcePoint" />
            <mxPoint x="450" y="160" as="targetPoint" />
          </mxGeometry>
        </mxCell>
      </root>
    </mxGraphModel>
  </diagram>
  <diagram id="qxKtfwVfe7dL044rw6AW" name="Diagramme d&#39;utilisation">
    <mxGraphModel dx="1009" dy="762" grid="1" gridSize="10" guides="1" tooltips="1" connect="1" arrows="1" fold="1" page="1" pageScale="1" pageWidth="413" pageHeight="583" math="0" shadow="0">
      <root>
        <mxCell id="9F5hkr3CROsdW2IMc62M-0" />
        <mxCell id="9F5hkr3CROsdW2IMc62M-1" parent="9F5hkr3CROsdW2IMc62M-0" />
        <mxCell id="WUuVXJbnl4Bnz6du6PBz-1" value="" style="edgeStyle=orthogonalEdgeStyle;rounded=0;orthogonalLoop=1;jettySize=auto;html=1;" parent="9F5hkr3CROsdW2IMc62M-1" source="WUuVXJbnl4Bnz6du6PBz-2" target="WUuVXJbnl4Bnz6du6PBz-7" edge="1">
          <mxGeometry relative="1" as="geometry" />
        </mxCell>
        <mxCell id="WUuVXJbnl4Bnz6du6PBz-2" value="" style="rounded=1;whiteSpace=wrap;html=1;fillColor=#fff2cc;strokeColor=#d6b656;" parent="9F5hkr3CROsdW2IMc62M-1" vertex="1">
          <mxGeometry x="718" y="132" width="120" height="60" as="geometry" />
        </mxCell>
        <mxCell id="WUuVXJbnl4Bnz6du6PBz-3" value="" style="rounded=1;whiteSpace=wrap;html=1;fillColor=#fff2cc;strokeColor=#d6b656;" parent="9F5hkr3CROsdW2IMc62M-1" vertex="1">
          <mxGeometry x="1168" y="132" width="120" height="60" as="geometry" />
        </mxCell>
        <mxCell id="WUuVXJbnl4Bnz6du6PBz-4" value="" style="edgeStyle=orthogonalEdgeStyle;rounded=0;orthogonalLoop=1;jettySize=auto;html=1;" parent="9F5hkr3CROsdW2IMc62M-1" source="WUuVXJbnl4Bnz6du6PBz-5" target="WUuVXJbnl4Bnz6du6PBz-3" edge="1">
          <mxGeometry relative="1" as="geometry" />
        </mxCell>
        <mxCell id="WUuVXJbnl4Bnz6du6PBz-5" value="" style="rounded=1;whiteSpace=wrap;html=1;fillColor=#fff2cc;strokeColor=#d6b656;" parent="9F5hkr3CROsdW2IMc62M-1" vertex="1">
          <mxGeometry x="1018" y="132" width="120" height="60" as="geometry" />
        </mxCell>
        <mxCell id="WUuVXJbnl4Bnz6du6PBz-6" value="" style="edgeStyle=orthogonalEdgeStyle;rounded=0;orthogonalLoop=1;jettySize=auto;html=1;" parent="9F5hkr3CROsdW2IMc62M-1" source="WUuVXJbnl4Bnz6du6PBz-7" target="WUuVXJbnl4Bnz6du6PBz-5" edge="1">
          <mxGeometry relative="1" as="geometry" />
        </mxCell>
        <mxCell id="WUuVXJbnl4Bnz6du6PBz-7" value="" style="rounded=1;whiteSpace=wrap;html=1;fillColor=#fff2cc;strokeColor=#d6b656;" parent="9F5hkr3CROsdW2IMc62M-1" vertex="1">
          <mxGeometry x="868" y="132" width="120" height="60" as="geometry" />
        </mxCell>
        <mxCell id="WUuVXJbnl4Bnz6du6PBz-8" value="" style="edgeStyle=orthogonalEdgeStyle;rounded=0;orthogonalLoop=1;jettySize=auto;html=1;" parent="9F5hkr3CROsdW2IMc62M-1" source="WUuVXJbnl4Bnz6du6PBz-10" target="WUuVXJbnl4Bnz6du6PBz-19" edge="1">
          <mxGeometry relative="1" as="geometry" />
        </mxCell>
        <mxCell id="WUuVXJbnl4Bnz6du6PBz-9" style="edgeStyle=orthogonalEdgeStyle;rounded=0;orthogonalLoop=1;jettySize=auto;html=1;exitX=0.5;exitY=1;exitDx=0;exitDy=0;entryX=0.5;entryY=1;entryDx=0;entryDy=0;" parent="9F5hkr3CROsdW2IMc62M-1" source="WUuVXJbnl4Bnz6du6PBz-10" target="WUuVXJbnl4Bnz6du6PBz-7" edge="1">
          <mxGeometry relative="1" as="geometry" />
        </mxCell>
        <mxCell id="WUuVXJbnl4Bnz6du6PBz-10" value="" style="rounded=1;whiteSpace=wrap;html=1;fillColor=#fff2cc;strokeColor=#d6b656;" parent="9F5hkr3CROsdW2IMc62M-1" vertex="1">
          <mxGeometry x="1318" y="132" width="120" height="60" as="geometry" />
        </mxCell>
        <mxCell id="WUuVXJbnl4Bnz6du6PBz-11" value="" style="rounded=1;whiteSpace=wrap;html=1;fillColor=#fff2cc;strokeColor=#d6b656;" parent="9F5hkr3CROsdW2IMc62M-1" vertex="1">
          <mxGeometry x="858" y="372" width="120" height="60" as="geometry" />
        </mxCell>
        <mxCell id="WUuVXJbnl4Bnz6du6PBz-12" value="" style="edgeStyle=orthogonalEdgeStyle;rounded=0;orthogonalLoop=1;jettySize=auto;html=1;" parent="9F5hkr3CROsdW2IMc62M-1" source="WUuVXJbnl4Bnz6du6PBz-13" target="WUuVXJbnl4Bnz6du6PBz-16" edge="1">
          <mxGeometry relative="1" as="geometry" />
        </mxCell>
        <mxCell id="WUuVXJbnl4Bnz6du6PBz-13" value="" style="rounded=1;whiteSpace=wrap;html=1;fillColor=#fff2cc;strokeColor=#d6b656;" parent="9F5hkr3CROsdW2IMc62M-1" vertex="1">
          <mxGeometry x="1168" y="292" width="120" height="60" as="geometry" />
        </mxCell>
        <mxCell id="WUuVXJbnl4Bnz6du6PBz-14" value="" style="edgeStyle=orthogonalEdgeStyle;rounded=0;orthogonalLoop=1;jettySize=auto;html=1;" parent="9F5hkr3CROsdW2IMc62M-1" source="WUuVXJbnl4Bnz6du6PBz-16" target="WUuVXJbnl4Bnz6du6PBz-17" edge="1">
          <mxGeometry relative="1" as="geometry" />
        </mxCell>
        <mxCell id="WUuVXJbnl4Bnz6du6PBz-15" style="edgeStyle=orthogonalEdgeStyle;rounded=0;orthogonalLoop=1;jettySize=auto;html=1;exitX=0.5;exitY=1;exitDx=0;exitDy=0;entryX=0.5;entryY=1;entryDx=0;entryDy=0;" parent="9F5hkr3CROsdW2IMc62M-1" source="WUuVXJbnl4Bnz6du6PBz-16" target="WUuVXJbnl4Bnz6du6PBz-11" edge="1">
          <mxGeometry relative="1" as="geometry" />
        </mxCell>
        <mxCell id="WUuVXJbnl4Bnz6du6PBz-16" value="" style="rounded=1;whiteSpace=wrap;html=1;fillColor=#fff2cc;strokeColor=#d6b656;" parent="9F5hkr3CROsdW2IMc62M-1" vertex="1">
          <mxGeometry x="1018" y="292" width="120" height="60" as="geometry" />
        </mxCell>
        <mxCell id="WUuVXJbnl4Bnz6du6PBz-17" value="" style="rounded=1;whiteSpace=wrap;html=1;fillColor=#fff2cc;strokeColor=#d6b656;" parent="9F5hkr3CROsdW2IMc62M-1" vertex="1">
          <mxGeometry x="798" y="292" width="120" height="60" as="geometry" />
        </mxCell>
        <mxCell id="WUuVXJbnl4Bnz6du6PBz-18" value="" style="edgeStyle=orthogonalEdgeStyle;rounded=0;orthogonalLoop=1;jettySize=auto;html=1;" parent="9F5hkr3CROsdW2IMc62M-1" source="WUuVXJbnl4Bnz6du6PBz-19" target="WUuVXJbnl4Bnz6du6PBz-13" edge="1">
          <mxGeometry relative="1" as="geometry" />
        </mxCell>
        <mxCell id="WUuVXJbnl4Bnz6du6PBz-19" value="" style="rounded=1;whiteSpace=wrap;html=1;fillColor=#fff2cc;strokeColor=#d6b656;" parent="9F5hkr3CROsdW2IMc62M-1" vertex="1">
          <mxGeometry x="1318" y="292" width="120" height="60" as="geometry" />
        </mxCell>
        <mxCell id="WUuVXJbnl4Bnz6du6PBz-20" value="" style="edgeStyle=orthogonalEdgeStyle;rounded=0;orthogonalLoop=1;jettySize=auto;html=1;" parent="9F5hkr3CROsdW2IMc62M-1" source="WUuVXJbnl4Bnz6du6PBz-21" target="WUuVXJbnl4Bnz6du6PBz-2" edge="1">
          <mxGeometry relative="1" as="geometry" />
        </mxCell>
        <mxCell id="WUuVXJbnl4Bnz6du6PBz-21" value="" style="ellipse;whiteSpace=wrap;html=1;aspect=fixed;fillColor=#000000;" parent="9F5hkr3CROsdW2IMc62M-1" vertex="1">
          <mxGeometry x="628" y="152" width="20" height="20" as="geometry" />
        </mxCell>
        <mxCell id="WUuVXJbnl4Bnz6du6PBz-22" value="" style="endArrow=classic;html=1;exitX=1;exitY=0.5;exitDx=0;exitDy=0;entryX=0;entryY=0.5;entryDx=0;entryDy=0;" parent="9F5hkr3CROsdW2IMc62M-1" source="WUuVXJbnl4Bnz6du6PBz-3" target="WUuVXJbnl4Bnz6du6PBz-10" edge="1">
          <mxGeometry width="50" height="50" relative="1" as="geometry">
            <mxPoint x="1228" y="322" as="sourcePoint" />
            <mxPoint x="1278" y="272" as="targetPoint" />
          </mxGeometry>
        </mxCell>
        <mxCell id="WUuVXJbnl4Bnz6du6PBz-23" value="Connexion" style="text;html=1;strokeColor=none;fillColor=none;align=center;verticalAlign=middle;whiteSpace=wrap;rounded=0;" parent="9F5hkr3CROsdW2IMc62M-1" vertex="1">
          <mxGeometry x="758" y="152" width="40" height="20" as="geometry" />
        </mxCell>
        <mxCell id="WUuVXJbnl4Bnz6du6PBz-24" value="&lt;div&gt;une partie du paiement&lt;/div&gt;" style="text;html=1;strokeColor=none;fillColor=none;align=center;verticalAlign=middle;whiteSpace=wrap;rounded=0;" parent="9F5hkr3CROsdW2IMc62M-1" vertex="1">
          <mxGeometry x="1193" y="312" width="70" height="20" as="geometry" />
        </mxCell>
        <mxCell id="WUuVXJbnl4Bnz6du6PBz-25" value="Confirmation" style="text;html=1;strokeColor=none;fillColor=none;align=center;verticalAlign=middle;whiteSpace=wrap;rounded=0;" parent="9F5hkr3CROsdW2IMc62M-1" vertex="1">
          <mxGeometry x="1058" y="312" width="40" height="20" as="geometry" />
        </mxCell>
        <mxCell id="WUuVXJbnl4Bnz6du6PBz-26" value="Paiement" style="text;html=1;strokeColor=none;fillColor=none;align=center;verticalAlign=middle;whiteSpace=wrap;rounded=0;" parent="9F5hkr3CROsdW2IMc62M-1" vertex="1">
          <mxGeometry x="838" y="312" width="40" height="20" as="geometry" />
        </mxCell>
        <mxCell id="WUuVXJbnl4Bnz6du6PBz-27" value="Remboursement" style="text;html=1;strokeColor=none;fillColor=none;align=center;verticalAlign=middle;whiteSpace=wrap;rounded=0;" parent="9F5hkr3CROsdW2IMc62M-1" vertex="1">
          <mxGeometry x="898" y="392" width="40" height="20" as="geometry" />
        </mxCell>
        <mxCell id="WUuVXJbnl4Bnz6du6PBz-28" value="Validation" style="text;html=1;strokeColor=none;fillColor=none;align=center;verticalAlign=middle;whiteSpace=wrap;rounded=0;" parent="9F5hkr3CROsdW2IMc62M-1" vertex="1">
          <mxGeometry x="1358" y="152" width="40" height="20" as="geometry" />
        </mxCell>
        <mxCell id="WUuVXJbnl4Bnz6du6PBz-29" value="Tarif" style="text;html=1;strokeColor=none;fillColor=none;align=center;verticalAlign=middle;whiteSpace=wrap;rounded=0;" parent="9F5hkr3CROsdW2IMc62M-1" vertex="1">
          <mxGeometry x="1208" y="152" width="40" height="20" as="geometry" />
        </mxCell>
        <mxCell id="WUuVXJbnl4Bnz6du6PBz-30" value="Profil du tueur" style="text;html=1;strokeColor=none;fillColor=none;align=center;verticalAlign=middle;whiteSpace=wrap;rounded=0;" parent="9F5hkr3CROsdW2IMc62M-1" vertex="1">
          <mxGeometry x="1053" y="152" width="50" height="20" as="geometry" />
        </mxCell>
        <mxCell id="WUuVXJbnl4Bnz6du6PBz-31" value="Catalogue du tueur" style="text;html=1;strokeColor=none;fillColor=none;align=center;verticalAlign=middle;whiteSpace=wrap;rounded=0;" parent="9F5hkr3CROsdW2IMc62M-1" vertex="1">
          <mxGeometry x="898" y="152" width="60" height="20" as="geometry" />
        </mxCell>
        <mxCell id="WUuVXJbnl4Bnz6du6PBz-32" value="Partage d&#39;infos" style="text;html=1;strokeColor=none;fillColor=none;align=center;verticalAlign=middle;whiteSpace=wrap;rounded=0;" parent="9F5hkr3CROsdW2IMc62M-1" vertex="1">
          <mxGeometry x="1358" y="312" width="40" height="20" as="geometry" />
        </mxCell>
        <mxCell id="WUuVXJbnl4Bnz6du6PBz-33" value="NON" style="text;html=1;fillColor=none;align=center;verticalAlign=middle;whiteSpace=wrap;rounded=0;strokeColor=#000000;" parent="9F5hkr3CROsdW2IMc62M-1" vertex="1">
          <mxGeometry x="1128" y="212" width="40" height="20" as="geometry" />
        </mxCell>
        <mxCell id="WUuVXJbnl4Bnz6du6PBz-34" value="OUI" style="text;html=1;fillColor=none;align=center;verticalAlign=middle;whiteSpace=wrap;rounded=0;strokeColor=#000000;" parent="9F5hkr3CROsdW2IMc62M-1" vertex="1">
          <mxGeometry x="1378" y="232" width="40" height="20" as="geometry" />
        </mxCell>
        <mxCell id="WUuVXJbnl4Bnz6du6PBz-35" value="OUI" style="text;html=1;fillColor=none;align=center;verticalAlign=middle;whiteSpace=wrap;rounded=0;strokeColor=#000000;" parent="9F5hkr3CROsdW2IMc62M-1" vertex="1">
          <mxGeometry x="957" y="322" width="30" height="20" as="geometry" />
        </mxCell>
        <mxCell id="WUuVXJbnl4Bnz6du6PBz-36" value="NON" style="text;html=1;fillColor=none;align=center;verticalAlign=middle;whiteSpace=wrap;rounded=0;strokeColor=#000000;" parent="9F5hkr3CROsdW2IMc62M-1" vertex="1">
          <mxGeometry x="1078" y="382" width="30" height="20" as="geometry" />
        </mxCell>
      </root>
    </mxGraphModel>
  </diagram>
  <diagram name="Diagramme d&#39;activité" id="e7e014a7-5840-1c2e-5031-d8a46d1fe8dd">
    <mxGraphModel dx="1594" dy="902" grid="1" gridSize="10" guides="1" tooltips="1" connect="1" arrows="1" fold="1" page="1" pageScale="1" pageWidth="1169" pageHeight="826" background="#ffffff" math="0" shadow="0">
      <root>
        <mxCell id="0" />
        <mxCell id="1" parent="0" />
        <mxCell id="2" value="Connexion" style="swimlane;whiteSpace=wrap" parent="1" vertex="1">
          <mxGeometry x="80" y="70" width="330" height="290" as="geometry" />
        </mxCell>
        <mxCell id="5" value="" style="ellipse;shape=startState;fillColor=#000000;strokeColor=#ff0000;" parent="2" vertex="1">
          <mxGeometry x="150" y="40" width="30" height="30" as="geometry" />
        </mxCell>
        <mxCell id="6" value="" style="edgeStyle=elbowEdgeStyle;elbow=horizontal;verticalAlign=bottom;endArrow=open;endSize=8;strokeColor=#FF0000;endFill=1;rounded=0;exitX=0;exitY=1;exitDx=0;exitDy=0;entryX=0.5;entryY=0;entryDx=0;entryDy=0;" parent="2" source="5" target="7" edge="1">
          <mxGeometry x="100" y="40" as="geometry">
            <mxPoint x="170" y="100" as="targetPoint" />
            <mxPoint x="100" y="80" as="sourcePoint" />
            <Array as="points">
              <mxPoint x="165" y="90" />
            </Array>
          </mxGeometry>
        </mxCell>
        <mxCell id="7" value="Connexion" style="" parent="2" vertex="1">
          <mxGeometry x="110" y="120" width="110" height="50" as="geometry" />
        </mxCell>
        <mxCell id="9" value="" style="endArrow=open;strokeColor=#FF0000;endFill=1;rounded=0;entryX=0.5;entryY=0;entryDx=0;entryDy=0;" parent="2" source="7" target="SvhvLugHfwUA9m5zu3sA-56" edge="1">
          <mxGeometry relative="1" as="geometry">
            <mxPoint x="165" y="220" as="targetPoint" />
          </mxGeometry>
        </mxCell>
        <mxCell id="11" value="" style="endArrow=open;strokeColor=#FF0000;endFill=1;rounded=0;entryX=0;entryY=0.5;entryDx=0;entryDy=0;exitX=0;exitY=0.5;exitDx=0;exitDy=0;" parent="2" source="SvhvLugHfwUA9m5zu3sA-56" target="7" edge="1">
          <mxGeometry relative="1" as="geometry">
            <mxPoint x="110" y="245" as="sourcePoint" />
            <mxPoint x="10" y="130" as="targetPoint" />
            <Array as="points">
              <mxPoint x="70" y="240" />
              <mxPoint x="70" y="145" />
            </Array>
          </mxGeometry>
        </mxCell>
        <mxCell id="SvhvLugHfwUA9m5zu3sA-58" value="Non" style="edgeLabel;html=1;align=center;verticalAlign=middle;resizable=0;points=[];" parent="11" vertex="1" connectable="0">
          <mxGeometry x="-0.0737" y="-1" relative="1" as="geometry">
            <mxPoint as="offset" />
          </mxGeometry>
        </mxCell>
        <mxCell id="SvhvLugHfwUA9m5zu3sA-56" value="Valide ?" style="rhombus;fillColor=#ffffc0;strokeColor=#ff0000;" parent="2" vertex="1">
          <mxGeometry x="112.5" y="210" width="105" height="60" as="geometry" />
        </mxCell>
        <mxCell id="3" value="Catalogue" style="swimlane;whiteSpace=wrap" parent="1" vertex="1">
          <mxGeometry x="450" y="280" width="340" height="510" as="geometry" />
        </mxCell>
        <mxCell id="15" value="Visionnage&#xa;du catalogue" style="" parent="3" vertex="1">
          <mxGeometry x="100" y="60" width="130" height="80" as="geometry" />
        </mxCell>
        <mxCell id="17" value="" style="endArrow=open;strokeColor=#FF0000;endFill=1;rounded=0;exitX=1;exitY=1;exitDx=0;exitDy=0;" parent="3" source="15" edge="1" target="WKhmUPyBHP7Sa6G5gS_i-39">
          <mxGeometry relative="1" as="geometry">
            <mxPoint x="155" y="130" as="targetPoint" />
          </mxGeometry>
        </mxCell>
        <mxCell id="SvhvLugHfwUA9m5zu3sA-61" value="Profil intéressant" style="rhombus;fillColor=#ffffc0;strokeColor=#ff0000;" parent="3" vertex="1">
          <mxGeometry x="92.5" y="240" width="145" height="70" as="geometry" />
        </mxCell>
        <mxCell id="WKhmUPyBHP7Sa6G5gS_i-39" value="&lt;div&gt;Filtrage&lt;/div&gt;&lt;div&gt;tueur&lt;br&gt;&lt;/div&gt;" style="rhombus;whiteSpace=wrap;html=1;fillColor=#ffffc0;strokeColor=#ff0000;" vertex="1" parent="3">
          <mxGeometry x="220" y="160" width="110" height="60" as="geometry" />
        </mxCell>
        <mxCell id="icTfxn6N0YWD9664ltX_-42" style="edgeStyle=orthogonalEdgeStyle;rounded=0;orthogonalLoop=1;jettySize=auto;html=1;entryX=1;entryY=0.4;entryDx=0;entryDy=0;entryPerimeter=0;exitX=0.691;exitY=0.163;exitDx=0;exitDy=0;exitPerimeter=0;" edge="1" parent="3" source="WKhmUPyBHP7Sa6G5gS_i-39" target="15">
          <mxGeometry relative="1" as="geometry">
            <mxPoint x="260" y="60" as="targetPoint" />
            <mxPoint x="293" y="135" as="sourcePoint" />
            <Array as="points">
              <mxPoint x="296" y="92" />
            </Array>
          </mxGeometry>
        </mxCell>
        <mxCell id="icTfxn6N0YWD9664ltX_-43" value="&lt;div&gt;Ajout filtre&lt;/div&gt;" style="edgeLabel;html=1;align=center;verticalAlign=middle;resizable=0;points=[];" vertex="1" connectable="0" parent="icTfxn6N0YWD9664ltX_-42">
          <mxGeometry x="-0.1385" y="2" relative="1" as="geometry">
            <mxPoint x="-11.05" y="23.240000000000002" as="offset" />
          </mxGeometry>
        </mxCell>
        <mxCell id="icTfxn6N0YWD9664ltX_-45" value="" style="endArrow=open;strokeColor=#FF0000;endFill=1;rounded=0;entryX=0.141;entryY=0.99;entryDx=0;entryDy=0;entryPerimeter=0;exitX=0;exitY=0;exitDx=0;exitDy=0;" edge="1" parent="3" source="SvhvLugHfwUA9m5zu3sA-61" target="15">
          <mxGeometry relative="1" as="geometry">
            <mxPoint x="118" y="258" as="sourcePoint" />
            <mxPoint x="100" y="92.5" as="targetPoint" />
            <Array as="points" />
          </mxGeometry>
        </mxCell>
        <mxCell id="icTfxn6N0YWD9664ltX_-46" value="Non" style="edgeLabel;html=1;align=center;verticalAlign=middle;resizable=0;points=[];" vertex="1" connectable="0" parent="icTfxn6N0YWD9664ltX_-45">
          <mxGeometry x="-0.0737" y="-1" relative="1" as="geometry">
            <mxPoint as="offset" />
          </mxGeometry>
        </mxCell>
        <mxCell id="icTfxn6N0YWD9664ltX_-44" value="" style="endArrow=open;strokeColor=#FF0000;endFill=1;rounded=0;exitX=0.5;exitY=1;exitDx=0;exitDy=0;entryX=0.5;entryY=0;entryDx=0;entryDy=0;" edge="1" parent="3" source="15" target="SvhvLugHfwUA9m5zu3sA-61">
          <mxGeometry relative="1" as="geometry">
            <mxPoint x="155" y="170" as="targetPoint" />
            <mxPoint x="-195" y="-30" as="sourcePoint" />
          </mxGeometry>
        </mxCell>
        <mxCell id="Va8pvFug6l0A-g93lua2-19" value="Remboursement&lt;br&gt;+&lt;br&gt;&lt;div&gt;dédomagemment&lt;/div&gt;" style="rounded=0;whiteSpace=wrap;html=1;" vertex="1" parent="3">
          <mxGeometry x="30" y="420" width="120" height="60" as="geometry" />
        </mxCell>
        <mxCell id="icTfxn6N0YWD9664ltX_-58" value="" style="endArrow=open;strokeColor=#FF0000;endFill=1;rounded=0;exitX=0.25;exitY=0;exitDx=0;exitDy=0;entryX=0;entryY=0.5;entryDx=0;entryDy=0;" edge="1" parent="3" source="Va8pvFug6l0A-g93lua2-19" target="15">
          <mxGeometry relative="1" as="geometry">
            <mxPoint x="20" y="110" as="targetPoint" />
            <mxPoint x="170" y="820" as="sourcePoint" />
            <Array as="points">
              <mxPoint x="20" y="390" />
              <mxPoint x="20" y="100" />
            </Array>
          </mxGeometry>
        </mxCell>
        <mxCell id="4" value="Profile tueur" style="swimlane;whiteSpace=wrap" parent="1" vertex="1">
          <mxGeometry x="820" y="280" width="280" height="470" as="geometry" />
        </mxCell>
        <mxCell id="hSNW1GyjgXjB87OLe-Su-39" value="Revue du profile" style="" parent="4" vertex="1">
          <mxGeometry x="77.5" y="80" width="125" height="70" as="geometry" />
        </mxCell>
        <mxCell id="hSNW1GyjgXjB87OLe-Su-40" value="" style="endArrow=open;strokeColor=#FF0000;endFill=1;rounded=0;entryX=0.5;entryY=0;entryDx=0;entryDy=0;exitX=0.5;exitY=1;exitDx=0;exitDy=0;" parent="4" target="hSNW1GyjgXjB87OLe-Su-41" edge="1" source="hSNW1GyjgXjB87OLe-Su-39">
          <mxGeometry relative="1" as="geometry">
            <mxPoint x="139.5" y="150" as="targetPoint" />
            <mxPoint x="139.5" y="100" as="sourcePoint" />
          </mxGeometry>
        </mxCell>
        <mxCell id="hSNW1GyjgXjB87OLe-Su-41" value="Contact" style="" parent="4" vertex="1">
          <mxGeometry x="85" y="210" width="110" height="50" as="geometry" />
        </mxCell>
        <mxCell id="hSNW1GyjgXjB87OLe-Su-42" value="" style="endArrow=open;strokeColor=#FF0000;endFill=1;rounded=0;entryX=0.5;entryY=0;entryDx=0;entryDy=0;exitX=0.5;exitY=1;exitDx=0;exitDy=0;" parent="4" edge="1" target="hSNW1GyjgXjB87OLe-Su-46" source="hSNW1GyjgXjB87OLe-Su-41">
          <mxGeometry relative="1" as="geometry">
            <mxPoint x="140" y="240" as="targetPoint" />
            <mxPoint x="139.5" y="190" as="sourcePoint" />
          </mxGeometry>
        </mxCell>
        <mxCell id="hSNW1GyjgXjB87OLe-Su-46" value="Demande&#xa;assassinat&#xa;" style="rhombus;fillColor=#ffffc0;strokeColor=#ff0000;" parent="4" vertex="1">
          <mxGeometry x="62.5" y="320" width="155" height="90" as="geometry" />
        </mxCell>
        <mxCell id="SvhvLugHfwUA9m5zu3sA-50" value="" style="endArrow=open;strokeColor=#FF0000;endFill=1;rounded=0;exitX=1;exitY=0.5;exitDx=0;exitDy=0;entryX=0;entryY=0;entryDx=0;entryDy=0;" parent="1" source="SvhvLugHfwUA9m5zu3sA-56" target="15" edge="1">
          <mxGeometry relative="1" as="geometry">
            <mxPoint x="245" y="340" as="sourcePoint" />
            <mxPoint x="590" y="345" as="targetPoint" />
            <Array as="points" />
          </mxGeometry>
        </mxCell>
        <mxCell id="SvhvLugHfwUA9m5zu3sA-59" value="Oui" style="edgeLabel;html=1;align=center;verticalAlign=middle;resizable=0;points=[];" parent="SvhvLugHfwUA9m5zu3sA-50" vertex="1" connectable="0">
          <mxGeometry x="-0.1037" y="-2" relative="1" as="geometry">
            <mxPoint x="-60.58" y="-12.38" as="offset" />
          </mxGeometry>
        </mxCell>
        <mxCell id="19" value="" style="endArrow=open;strokeColor=#FF0000;endFill=1;rounded=0;exitX=1;exitY=0.5;exitDx=0;exitDy=0;entryX=0;entryY=1;entryDx=0;entryDy=0;" parent="1" source="SvhvLugHfwUA9m5zu3sA-61" target="hSNW1GyjgXjB87OLe-Su-39" edge="1">
          <mxGeometry relative="1" as="geometry">
            <mxPoint x="573.5" y="550" as="sourcePoint" />
            <mxPoint x="870" y="600" as="targetPoint" />
            <Array as="points">
              <mxPoint x="840" y="470" />
            </Array>
          </mxGeometry>
        </mxCell>
        <mxCell id="SvhvLugHfwUA9m5zu3sA-63" value="Oui" style="edgeLabel;html=1;align=center;verticalAlign=middle;resizable=0;points=[];" parent="19" vertex="1" connectable="0">
          <mxGeometry x="-0.3176" y="-3" relative="1" as="geometry">
            <mxPoint x="-38.33" y="13.34" as="offset" />
          </mxGeometry>
        </mxCell>
        <mxCell id="hSNW1GyjgXjB87OLe-Su-48" value="" style="endArrow=open;strokeColor=#FF0000;endFill=1;rounded=0;exitX=0;exitY=0.5;exitDx=0;exitDy=0;entryX=0;entryY=1;entryDx=0;entryDy=0;" parent="1" source="hSNW1GyjgXjB87OLe-Su-46" target="15" edge="1">
          <mxGeometry relative="1" as="geometry">
            <mxPoint x="510" y="390" as="targetPoint" />
            <mxPoint x="895" y="790" as="sourcePoint" />
            <Array as="points">
              <mxPoint x="510" y="645" />
              <mxPoint x="510" y="420" />
            </Array>
          </mxGeometry>
        </mxCell>
        <mxCell id="hSNW1GyjgXjB87OLe-Su-51" value="Refusée" style="edgeLabel;html=1;align=center;verticalAlign=middle;resizable=0;points=[];" parent="hSNW1GyjgXjB87OLe-Su-48" vertex="1" connectable="0">
          <mxGeometry x="-0.648" y="-2" relative="1" as="geometry">
            <mxPoint x="76.91" y="2" as="offset" />
          </mxGeometry>
        </mxCell>
        <mxCell id="icTfxn6N0YWD9664ltX_-47" value="Informations &amp; Paiement" style="swimlane;whiteSpace=wrap" vertex="1" parent="1">
          <mxGeometry x="820" y="789" width="280" height="511" as="geometry" />
        </mxCell>
        <mxCell id="icTfxn6N0YWD9664ltX_-48" value="Dernière partie&#xa;du paiement" style="" vertex="1" parent="icTfxn6N0YWD9664ltX_-47">
          <mxGeometry x="85" y="280" width="115" height="60" as="geometry" />
        </mxCell>
        <mxCell id="icTfxn6N0YWD9664ltX_-49" value="" style="ellipse;shape=endState;fillColor=#000000;strokeColor=#ff0000" vertex="1" parent="icTfxn6N0YWD9664ltX_-47">
          <mxGeometry x="127.5" y="471" width="30" height="30" as="geometry" />
        </mxCell>
        <mxCell id="icTfxn6N0YWD9664ltX_-50" value="" style="endArrow=open;strokeColor=#FF0000;endFill=1;rounded=0" edge="1" parent="icTfxn6N0YWD9664ltX_-47" source="icTfxn6N0YWD9664ltX_-48" target="icTfxn6N0YWD9664ltX_-49">
          <mxGeometry relative="1" as="geometry" />
        </mxCell>
        <mxCell id="icTfxn6N0YWD9664ltX_-51" value="Première partie&#xa;du&#xa;paiement&#xa;" style="" vertex="1" parent="icTfxn6N0YWD9664ltX_-47">
          <mxGeometry x="80" y="51" width="120" height="70" as="geometry" />
        </mxCell>
        <mxCell id="icTfxn6N0YWD9664ltX_-52" value="" style="endArrow=open;strokeColor=#FF0000;endFill=1;rounded=0;entryX=0.5;entryY=0;entryDx=0;entryDy=0;exitX=0.5;exitY=1;exitDx=0;exitDy=0;" edge="1" parent="icTfxn6N0YWD9664ltX_-47" target="icTfxn6N0YWD9664ltX_-57" source="icTfxn6N0YWD9664ltX_-51">
          <mxGeometry relative="1" as="geometry">
            <mxPoint x="140" y="150" as="targetPoint" />
            <mxPoint x="139.5" y="100" as="sourcePoint" />
          </mxGeometry>
        </mxCell>
        <mxCell id="icTfxn6N0YWD9664ltX_-55" value="" style="endArrow=open;strokeColor=#FF0000;endFill=1;rounded=0;exitX=0.5;exitY=1;exitDx=0;exitDy=0;" edge="1" parent="icTfxn6N0YWD9664ltX_-47" source="icTfxn6N0YWD9664ltX_-57">
          <mxGeometry relative="1" as="geometry">
            <mxPoint x="140" y="280" as="targetPoint" />
            <mxPoint x="139.5" y="306" as="sourcePoint" />
          </mxGeometry>
        </mxCell>
        <mxCell id="icTfxn6N0YWD9664ltX_-56" value="Oui" style="edgeLabel;html=1;align=center;verticalAlign=middle;resizable=0;points=[];" vertex="1" connectable="0" parent="icTfxn6N0YWD9664ltX_-55">
          <mxGeometry x="-0.2799" y="1" relative="1" as="geometry">
            <mxPoint x="-1" y="8" as="offset" />
          </mxGeometry>
        </mxCell>
        <mxCell id="icTfxn6N0YWD9664ltX_-57" value="Confirmation&#xa;meurtre" style="rhombus;fillColor=#ffffc0;strokeColor=#ff0000;" vertex="1" parent="icTfxn6N0YWD9664ltX_-47">
          <mxGeometry x="87.5" y="161" width="105" height="70" as="geometry" />
        </mxCell>
        <mxCell id="Va8pvFug6l0A-g93lua2-23" value="Notation&#xa;tueur&#xa;" style="rhombus;fillColor=#ffffc0;strokeColor=#ff0000;" vertex="1" parent="icTfxn6N0YWD9664ltX_-47">
          <mxGeometry x="170" y="371" width="100" height="69" as="geometry" />
        </mxCell>
        <mxCell id="Va8pvFug6l0A-g93lua2-24" value="" style="endArrow=open;strokeColor=#FF0000;endFill=1;rounded=0;entryX=0.5;entryY=0;entryDx=0;entryDy=0;exitX=1;exitY=1;exitDx=0;exitDy=0;" edge="1" parent="icTfxn6N0YWD9664ltX_-47" source="icTfxn6N0YWD9664ltX_-48" target="Va8pvFug6l0A-g93lua2-23">
          <mxGeometry relative="1" as="geometry">
            <mxPoint x="150" y="170.99999999999977" as="targetPoint" />
            <mxPoint x="150" y="130.99999999999977" as="sourcePoint" />
          </mxGeometry>
        </mxCell>
        <mxCell id="Va8pvFug6l0A-g93lua2-25" value="" style="endArrow=open;strokeColor=#FF0000;endFill=1;rounded=0;entryX=1;entryY=0;entryDx=0;entryDy=0;exitX=0.5;exitY=1;exitDx=0;exitDy=0;" edge="1" parent="icTfxn6N0YWD9664ltX_-47" source="Va8pvFug6l0A-g93lua2-23" target="icTfxn6N0YWD9664ltX_-49">
          <mxGeometry relative="1" as="geometry">
            <mxPoint x="230" y="381" as="targetPoint" />
            <mxPoint x="210" y="350" as="sourcePoint" />
          </mxGeometry>
        </mxCell>
        <mxCell id="hSNW1GyjgXjB87OLe-Su-44" value="" style="endArrow=open;strokeColor=#FF0000;endFill=1;rounded=0;exitX=0.5;exitY=1;exitDx=0;exitDy=0;entryX=0.5;entryY=0;entryDx=0;entryDy=0;" parent="1" source="hSNW1GyjgXjB87OLe-Su-46" edge="1" target="icTfxn6N0YWD9664ltX_-51">
          <mxGeometry relative="1" as="geometry">
            <mxPoint x="950" y="880" as="targetPoint" />
            <mxPoint x="949.5" y="826" as="sourcePoint" />
          </mxGeometry>
        </mxCell>
        <mxCell id="hSNW1GyjgXjB87OLe-Su-45" value="Acceptée" style="edgeLabel;html=1;align=center;verticalAlign=middle;resizable=0;points=[];" parent="hSNW1GyjgXjB87OLe-Su-44" vertex="1" connectable="0">
          <mxGeometry x="-0.2799" y="1" relative="1" as="geometry">
            <mxPoint x="-4.07" y="-31.84" as="offset" />
          </mxGeometry>
        </mxCell>
        <mxCell id="Va8pvFug6l0A-g93lua2-20" value="" style="endArrow=open;strokeColor=#FF0000;endFill=1;rounded=0;entryX=1;entryY=1;entryDx=0;entryDy=0;exitX=0;exitY=0.5;exitDx=0;exitDy=0;" edge="1" parent="1" source="icTfxn6N0YWD9664ltX_-57" target="Va8pvFug6l0A-g93lua2-19">
          <mxGeometry relative="1" as="geometry">
            <mxPoint x="970" y="499.9999999999998" as="targetPoint" />
            <mxPoint x="970" y="439.9999999999998" as="sourcePoint" />
          </mxGeometry>
        </mxCell>
        <mxCell id="Va8pvFug6l0A-g93lua2-21" value="Non" style="edgeLabel;html=1;align=center;verticalAlign=middle;resizable=0;points=[];" vertex="1" connectable="0" parent="Va8pvFug6l0A-g93lua2-20">
          <mxGeometry x="-0.8007" relative="1" as="geometry">
            <mxPoint x="-16.37" y="-12.22" as="offset" />
          </mxGeometry>
        </mxCell>
      </root>
    </mxGraphModel>
  </diagram>
  <diagram id="W6_f8h7h2F1EwvNmOjg_" name="Diagramme de séquence">
    <mxGraphModel dx="1355" dy="767" grid="1" gridSize="10" guides="1" tooltips="1" connect="1" arrows="1" fold="1" page="1" pageScale="1" pageWidth="413" pageHeight="583" math="0" shadow="0">
      <root>
        <mxCell id="Dvx409sYST6VDi8qkyrC-0" />
        <mxCell id="Dvx409sYST6VDi8qkyrC-1" parent="Dvx409sYST6VDi8qkyrC-0" />
        <mxCell id="mKPldK9T4VyQ4orUg8VH-0" value="" style="html=1;points=[];perimeter=orthogonalPerimeter;" vertex="1" parent="Dvx409sYST6VDi8qkyrC-1">
          <mxGeometry x="380" y="80" width="10" height="520" as="geometry" />
        </mxCell>
        <mxCell id="mKPldK9T4VyQ4orUg8VH-1" value="" style="html=1;points=[];perimeter=orthogonalPerimeter;" vertex="1" parent="Dvx409sYST6VDi8qkyrC-1">
          <mxGeometry x="260" y="80" width="8" height="520" as="geometry" />
        </mxCell>
        <mxCell id="mKPldK9T4VyQ4orUg8VH-2" value="Client" style="text;align=center;fontStyle=1;verticalAlign=middle;spacingLeft=3;spacingRight=3;strokeColor=none;rotatable=0;points=[[0,0.5],[1,0.5]];portConstraint=eastwest;" vertex="1" parent="Dvx409sYST6VDi8qkyrC-1">
          <mxGeometry x="225" y="40" width="78" height="26" as="geometry" />
        </mxCell>
        <mxCell id="mKPldK9T4VyQ4orUg8VH-3" value="" style="html=1;points=[];perimeter=orthogonalPerimeter;" vertex="1" parent="Dvx409sYST6VDi8qkyrC-1">
          <mxGeometry x="500" y="80" width="10" height="520" as="geometry" />
        </mxCell>
        <mxCell id="mKPldK9T4VyQ4orUg8VH-4" value="" style="html=1;points=[];perimeter=orthogonalPerimeter;" vertex="1" parent="Dvx409sYST6VDi8qkyrC-1">
          <mxGeometry x="620" y="80" width="10" height="520" as="geometry" />
        </mxCell>
        <mxCell id="mKPldK9T4VyQ4orUg8VH-5" value="Site" style="text;align=center;fontStyle=1;verticalAlign=middle;spacingLeft=3;spacingRight=3;strokeColor=none;rotatable=0;points=[[0,0.5],[1,0.5]];portConstraint=eastwest;" vertex="1" parent="Dvx409sYST6VDi8qkyrC-1">
          <mxGeometry x="345" y="40" width="80" height="26" as="geometry" />
        </mxCell>
        <mxCell id="mKPldK9T4VyQ4orUg8VH-6" value="Meurtrier" style="text;align=center;fontStyle=1;verticalAlign=middle;spacingLeft=3;spacingRight=3;strokeColor=none;rotatable=0;points=[[0,0.5],[1,0.5]];portConstraint=eastwest;" vertex="1" parent="Dvx409sYST6VDi8qkyrC-1">
          <mxGeometry x="465" y="40" width="80" height="26" as="geometry" />
        </mxCell>
        <mxCell id="mKPldK9T4VyQ4orUg8VH-7" value="Paiement" style="text;align=center;fontStyle=1;verticalAlign=middle;spacingLeft=3;spacingRight=3;strokeColor=none;rotatable=0;points=[[0,0.5],[1,0.5]];portConstraint=eastwest;" vertex="1" parent="Dvx409sYST6VDi8qkyrC-1">
          <mxGeometry x="585" y="40" width="80" height="26" as="geometry" />
        </mxCell>
        <mxCell id="mKPldK9T4VyQ4orUg8VH-8" value="Se connecte" style="html=1;verticalAlign=bottom;endArrow=block;entryX=-0.5;entryY=0.002;entryDx=0;entryDy=0;entryPerimeter=0;" edge="1" parent="Dvx409sYST6VDi8qkyrC-1" target="mKPldK9T4VyQ4orUg8VH-0">
          <mxGeometry relative="1" as="geometry">
            <mxPoint x="270" y="80" as="sourcePoint" />
            <mxPoint x="370" y="80" as="targetPoint" />
            <Array as="points" />
            <mxPoint as="offset" />
          </mxGeometry>
        </mxCell>
        <mxCell id="mKPldK9T4VyQ4orUg8VH-9" value="Valide ou refuse" style="html=1;verticalAlign=bottom;endArrow=block;dashed=1;" edge="1" parent="Dvx409sYST6VDi8qkyrC-1">
          <mxGeometry relative="1" as="geometry">
            <mxPoint x="370" y="120" as="sourcePoint" />
            <mxPoint x="270" y="120" as="targetPoint" />
            <Array as="points" />
            <mxPoint as="offset" />
          </mxGeometry>
        </mxCell>
        <mxCell id="mKPldK9T4VyQ4orUg8VH-10" value="Envoie le catalogue" style="html=1;verticalAlign=bottom;endArrow=block;" edge="1" parent="Dvx409sYST6VDi8qkyrC-1">
          <mxGeometry relative="1" as="geometry">
            <mxPoint x="376" y="159" as="sourcePoint" />
            <mxPoint x="270" y="159" as="targetPoint" />
            <Array as="points" />
            <mxPoint as="offset" />
          </mxGeometry>
        </mxCell>
        <mxCell id="mKPldK9T4VyQ4orUg8VH-11" value="Filtre les résultats" style="html=1;verticalAlign=bottom;endArrow=block;entryX=-0.5;entryY=0.002;entryDx=0;entryDy=0;entryPerimeter=0;" edge="1" parent="Dvx409sYST6VDi8qkyrC-1">
          <mxGeometry relative="1" as="geometry">
            <mxPoint x="268" y="200" as="sourcePoint" />
            <mxPoint x="373" y="200.88" as="targetPoint" />
            <Array as="points" />
            <mxPoint as="offset" />
          </mxGeometry>
        </mxCell>
        <mxCell id="mKPldK9T4VyQ4orUg8VH-12" value="Demande un profil" style="html=1;verticalAlign=bottom;endArrow=block;entryX=-0.5;entryY=0.002;entryDx=0;entryDy=0;entryPerimeter=0;" edge="1" parent="Dvx409sYST6VDi8qkyrC-1">
          <mxGeometry relative="1" as="geometry">
            <mxPoint x="275" y="240" as="sourcePoint" />
            <mxPoint x="380" y="240.88" as="targetPoint" />
            <Array as="points" />
            <mxPoint as="offset" />
          </mxGeometry>
        </mxCell>
        <mxCell id="mKPldK9T4VyQ4orUg8VH-13" value="Renvoie le profil" style="html=1;verticalAlign=bottom;endArrow=block;dashed=1;" edge="1" parent="Dvx409sYST6VDi8qkyrC-1">
          <mxGeometry relative="1" as="geometry">
            <mxPoint x="370" y="280" as="sourcePoint" />
            <mxPoint x="270" y="280" as="targetPoint" />
            <Array as="points" />
            <mxPoint as="offset" />
          </mxGeometry>
        </mxCell>
        <mxCell id="mKPldK9T4VyQ4orUg8VH-14" value="&lt;div&gt;Contact le meurtrier&lt;/div&gt;" style="html=1;verticalAlign=bottom;endArrow=block;entryX=-0.2;entryY=0.46;entryDx=0;entryDy=0;entryPerimeter=0;" edge="1" parent="Dvx409sYST6VDi8qkyrC-1" target="mKPldK9T4VyQ4orUg8VH-3">
          <mxGeometry x="0.0455" relative="1" as="geometry">
            <mxPoint x="275" y="320" as="sourcePoint" />
            <mxPoint x="380" y="320.88" as="targetPoint" />
            <Array as="points" />
            <mxPoint as="offset" />
          </mxGeometry>
        </mxCell>
        <mxCell id="mKPldK9T4VyQ4orUg8VH-15" value="Accepte ou refuse" style="html=1;verticalAlign=bottom;endArrow=block;dashed=1;exitX=0.1;exitY=0.54;exitDx=0;exitDy=0;exitPerimeter=0;" edge="1" parent="Dvx409sYST6VDi8qkyrC-1" source="mKPldK9T4VyQ4orUg8VH-3">
          <mxGeometry relative="1" as="geometry">
            <mxPoint x="500" y="360" as="sourcePoint" />
            <mxPoint x="270" y="360" as="targetPoint" />
            <Array as="points" />
            <mxPoint as="offset" />
          </mxGeometry>
        </mxCell>
        <mxCell id="mKPldK9T4VyQ4orUg8VH-16" value="Paye une partie" style="html=1;verticalAlign=bottom;endArrow=block;" edge="1" parent="Dvx409sYST6VDi8qkyrC-1">
          <mxGeometry x="0.0455" relative="1" as="geometry">
            <mxPoint x="275" y="400.20000000000005" as="sourcePoint" />
            <mxPoint x="617" y="400" as="targetPoint" />
            <Array as="points" />
            <mxPoint as="offset" />
          </mxGeometry>
        </mxCell>
        <mxCell id="mKPldK9T4VyQ4orUg8VH-17" value="Confirme le paiement" style="html=1;verticalAlign=bottom;endArrow=block;dashed=1;entryX=1;entryY=0.694;entryDx=0;entryDy=0;entryPerimeter=0;" edge="1" parent="Dvx409sYST6VDi8qkyrC-1" target="mKPldK9T4VyQ4orUg8VH-3">
          <mxGeometry relative="1" as="geometry">
            <mxPoint x="620" y="440" as="sourcePoint" />
            <mxPoint x="390" y="440" as="targetPoint" />
            <Array as="points" />
            <mxPoint as="offset" />
          </mxGeometry>
        </mxCell>
        <mxCell id="mKPldK9T4VyQ4orUg8VH-18" value="Confirme le meurtre" style="html=1;verticalAlign=bottom;endArrow=block;" edge="1" parent="Dvx409sYST6VDi8qkyrC-1">
          <mxGeometry x="0.091" relative="1" as="geometry">
            <mxPoint x="610" y="480" as="sourcePoint" />
            <mxPoint x="270" y="480" as="targetPoint" />
            <Array as="points" />
            <mxPoint as="offset" />
          </mxGeometry>
        </mxCell>
        <mxCell id="mKPldK9T4VyQ4orUg8VH-19" value="Paye l&#39;autre partie" style="html=1;verticalAlign=bottom;endArrow=block;" edge="1" parent="Dvx409sYST6VDi8qkyrC-1">
          <mxGeometry x="0.0234" relative="1" as="geometry">
            <mxPoint x="270" y="520" as="sourcePoint" />
            <mxPoint x="610" y="520" as="targetPoint" />
            <Array as="points" />
            <mxPoint as="offset" />
          </mxGeometry>
        </mxCell>
        <mxCell id="mKPldK9T4VyQ4orUg8VH-20" value="Confirme le paiement" style="html=1;verticalAlign=bottom;endArrow=block;dashed=1;" edge="1" parent="Dvx409sYST6VDi8qkyrC-1">
          <mxGeometry relative="1" as="geometry">
            <mxPoint x="610" y="560" as="sourcePoint" />
            <mxPoint x="520" y="560" as="targetPoint" />
            <Array as="points" />
            <mxPoint as="offset" />
          </mxGeometry>
        </mxCell>
        <mxCell id="mKPldK9T4VyQ4orUg8VH-21" value="Note le tueur" style="html=1;verticalAlign=bottom;endArrow=block;entryX=-0.5;entryY=0.002;entryDx=0;entryDy=0;entryPerimeter=0;" edge="1" parent="Dvx409sYST6VDi8qkyrC-1">
          <mxGeometry relative="1" as="geometry">
            <mxPoint x="275" y="599" as="sourcePoint" />
            <mxPoint x="380" y="599.88" as="targetPoint" />
            <Array as="points" />
            <mxPoint as="offset" />
          </mxGeometry>
        </mxCell>
        <mxCell id="mKPldK9T4VyQ4orUg8VH-22" value="Tant que refus" style="shape=umlFrame;whiteSpace=wrap;html=1;" vertex="1" parent="Dvx409sYST6VDi8qkyrC-1">
          <mxGeometry x="190" y="60" width="355" height="70" as="geometry" />
        </mxCell>
        <mxCell id="mKPldK9T4VyQ4orUg8VH-23" value="Tant que refus" style="shape=umlFrame;whiteSpace=wrap;html=1;" vertex="1" parent="Dvx409sYST6VDi8qkyrC-1">
          <mxGeometry x="190" y="305" width="355" height="70" as="geometry" />
        </mxCell>
      </root>
    </mxGraphModel>
  </diagram>
  <diagram id="lwP28P3lPls5JU_JOsYP" name="Diagramme de classe">
    <mxGraphModel dx="2031" dy="1089" grid="1" gridSize="10" guides="1" tooltips="1" connect="1" arrows="1" fold="1" page="1" pageScale="1" pageWidth="413" pageHeight="583" math="0" shadow="0">
      <root>
        <mxCell id="PfIoUR0caZYvUuiIWkIY-0" />
        <mxCell id="PfIoUR0caZYvUuiIWkIY-1" parent="PfIoUR0caZYvUuiIWkIY-0" />
        <mxCell id="PfIoUR0caZYvUuiIWkIY-46" value="" style="endArrow=block;endSize=10;endFill=0;shadow=0;strokeWidth=1;rounded=0;edgeStyle=elbowEdgeStyle;elbow=vertical;" edge="1" parent="PfIoUR0caZYvUuiIWkIY-1" source="PfIoUR0caZYvUuiIWkIY-63" target="PfIoUR0caZYvUuiIWkIY-38">
          <mxGeometry width="160" relative="1" as="geometry">
            <mxPoint x="275" y="383" as="sourcePoint" />
            <mxPoint x="275" y="383" as="targetPoint" />
          </mxGeometry>
        </mxCell>
        <mxCell id="PfIoUR0caZYvUuiIWkIY-47" value="" style="endArrow=open;shadow=0;strokeWidth=1;rounded=0;endFill=1;edgeStyle=elbowEdgeStyle;elbow=vertical;" edge="1" parent="PfIoUR0caZYvUuiIWkIY-1" source="PfIoUR0caZYvUuiIWkIY-38" target="PfIoUR0caZYvUuiIWkIY-79">
          <mxGeometry x="0.5" y="41" relative="1" as="geometry">
            <mxPoint x="455" y="372" as="sourcePoint" />
            <mxPoint x="615" y="372" as="targetPoint" />
            <mxPoint x="-40" y="32" as="offset" />
          </mxGeometry>
        </mxCell>
        <mxCell id="PfIoUR0caZYvUuiIWkIY-48" value="profil tueur choisi" style="text;html=1;resizable=0;points=[];;align=center;verticalAlign=middle;labelBackgroundColor=none;rounded=0;shadow=0;strokeWidth=1;fontSize=12;" vertex="1" connectable="0" parent="PfIoUR0caZYvUuiIWkIY-47">
          <mxGeometry x="0.5" y="49" relative="1" as="geometry">
            <mxPoint x="-38" y="40" as="offset" />
          </mxGeometry>
        </mxCell>
        <mxCell id="PfIoUR0caZYvUuiIWkIY-78" value="formulaire de recherche" style="text;html=1;resizable=0;points=[];;align=center;verticalAlign=middle;labelBackgroundColor=none;rounded=0;shadow=0;strokeWidth=1;fontSize=12;" vertex="1" connectable="0" parent="PfIoUR0caZYvUuiIWkIY-1">
          <mxGeometry x="305" y="530" as="geometry" />
        </mxCell>
        <mxCell id="PfIoUR0caZYvUuiIWkIY-91" value="" style="endArrow=classic;html=1;exitX=1;exitY=0.5;exitDx=0;exitDy=0;entryX=0.006;entryY=0.301;entryDx=0;entryDy=0;entryPerimeter=0;" edge="1" parent="PfIoUR0caZYvUuiIWkIY-1" source="PfIoUR0caZYvUuiIWkIY-82" target="PfIoUR0caZYvUuiIWkIY-53">
          <mxGeometry width="50" height="50" relative="1" as="geometry">
            <mxPoint x="715" y="510" as="sourcePoint" />
            <mxPoint x="765" y="460" as="targetPoint" />
          </mxGeometry>
        </mxCell>
        <mxCell id="PfIoUR0caZYvUuiIWkIY-92" value="Contact tueur" style="edgeLabel;html=1;align=center;verticalAlign=middle;resizable=0;points=[];" vertex="1" connectable="0" parent="PfIoUR0caZYvUuiIWkIY-91">
          <mxGeometry x="-0.3103" y="3" relative="1" as="geometry">
            <mxPoint as="offset" />
          </mxGeometry>
        </mxCell>
        <mxCell id="PfIoUR0caZYvUuiIWkIY-38" value="Catalogue tueurs" style="swimlane;fontStyle=2;align=center;verticalAlign=top;childLayout=stackLayout;horizontal=1;startSize=26;horizontalStack=0;resizeParent=1;resizeLast=0;collapsible=1;marginBottom=0;rounded=0;shadow=0;strokeWidth=1;" vertex="1" parent="PfIoUR0caZYvUuiIWkIY-1">
          <mxGeometry x="295" y="300" width="160" height="190" as="geometry">
            <mxRectangle x="230" y="140" width="160" height="26" as="alternateBounds" />
          </mxGeometry>
        </mxCell>
        <mxCell id="PfIoUR0caZYvUuiIWkIY-39" value="- name : str" style="text;align=left;verticalAlign=top;spacingLeft=4;spacingRight=4;overflow=hidden;rotatable=0;points=[[0,0.5],[1,0.5]];portConstraint=eastwest;" vertex="1" parent="PfIoUR0caZYvUuiIWkIY-38">
          <mxGeometry y="26" width="160" height="26" as="geometry" />
        </mxCell>
        <mxCell id="PfIoUR0caZYvUuiIWkIY-40" value="- nationality : str" style="text;align=left;verticalAlign=top;spacingLeft=4;spacingRight=4;overflow=hidden;rotatable=0;points=[[0,0.5],[1,0.5]];portConstraint=eastwest;rounded=0;shadow=0;html=0;" vertex="1" parent="PfIoUR0caZYvUuiIWkIY-38">
          <mxGeometry y="52" width="160" height="26" as="geometry" />
        </mxCell>
        <mxCell id="PfIoUR0caZYvUuiIWkIY-41" value="- speciality : str" style="text;align=left;verticalAlign=top;spacingLeft=4;spacingRight=4;overflow=hidden;rotatable=0;points=[[0,0.5],[1,0.5]];portConstraint=eastwest;rounded=0;shadow=0;html=0;" vertex="1" parent="PfIoUR0caZYvUuiIWkIY-38">
          <mxGeometry y="78" width="160" height="26" as="geometry" />
        </mxCell>
        <mxCell id="PfIoUR0caZYvUuiIWkIY-42" value="" style="line;html=1;strokeWidth=1;align=left;verticalAlign=middle;spacingTop=-1;spacingLeft=3;spacingRight=3;rotatable=0;labelPosition=right;points=[];portConstraint=eastwest;" vertex="1" parent="PfIoUR0caZYvUuiIWkIY-38">
          <mxGeometry y="104" width="160" height="8" as="geometry" />
        </mxCell>
        <mxCell id="PfIoUR0caZYvUuiIWkIY-43" value="+ get_name() :str" style="text;align=left;verticalAlign=top;spacingLeft=4;spacingRight=4;overflow=hidden;rotatable=0;points=[[0,0.5],[1,0.5]];portConstraint=eastwest;rounded=0;shadow=0;html=0;" vertex="1" parent="PfIoUR0caZYvUuiIWkIY-38">
          <mxGeometry y="112" width="160" height="26" as="geometry" />
        </mxCell>
        <mxCell id="PfIoUR0caZYvUuiIWkIY-44" value="+ get_speciality() :str" style="text;align=left;verticalAlign=top;spacingLeft=4;spacingRight=4;overflow=hidden;rotatable=0;points=[[0,0.5],[1,0.5]];portConstraint=eastwest;rounded=0;shadow=0;html=0;" vertex="1" parent="PfIoUR0caZYvUuiIWkIY-38">
          <mxGeometry y="138" width="160" height="26" as="geometry" />
        </mxCell>
        <mxCell id="PfIoUR0caZYvUuiIWkIY-45" value="+ get_nationality() :str" style="text;align=left;verticalAlign=top;spacingLeft=4;spacingRight=4;overflow=hidden;rotatable=0;points=[[0,0.5],[1,0.5]];portConstraint=eastwest;rounded=0;shadow=0;html=0;" vertex="1" parent="PfIoUR0caZYvUuiIWkIY-38">
          <mxGeometry y="164" width="160" height="26" as="geometry" />
        </mxCell>
        <mxCell id="PfIoUR0caZYvUuiIWkIY-49" value="Message" style="swimlane;fontStyle=0;align=center;verticalAlign=top;childLayout=stackLayout;horizontal=1;startSize=26;horizontalStack=0;resizeParent=1;resizeLast=0;collapsible=1;marginBottom=0;rounded=0;shadow=0;strokeWidth=1;" vertex="1" parent="PfIoUR0caZYvUuiIWkIY-1">
          <mxGeometry x="935" y="270" width="200" height="265" as="geometry">
            <mxRectangle x="340" y="380" width="170" height="26" as="alternateBounds" />
          </mxGeometry>
        </mxCell>
        <mxCell id="PfIoUR0caZYvUuiIWkIY-50" value="- user1_id : int" style="text;align=left;verticalAlign=top;spacingLeft=4;spacingRight=4;overflow=hidden;rotatable=0;points=[[0,0.5],[1,0.5]];portConstraint=eastwest;" vertex="1" parent="PfIoUR0caZYvUuiIWkIY-49">
          <mxGeometry y="26" width="200" height="26" as="geometry" />
        </mxCell>
        <mxCell id="PfIoUR0caZYvUuiIWkIY-51" value="- user2_id : int" style="text;align=left;verticalAlign=top;spacingLeft=4;spacingRight=4;overflow=hidden;rotatable=0;points=[[0,0.5],[1,0.5]];portConstraint=eastwest;" vertex="1" parent="PfIoUR0caZYvUuiIWkIY-49">
          <mxGeometry y="52" width="200" height="26" as="geometry" />
        </mxCell>
        <mxCell id="PfIoUR0caZYvUuiIWkIY-52" value="- date : str" style="text;align=left;verticalAlign=top;spacingLeft=4;spacingRight=4;overflow=hidden;rotatable=0;points=[[0,0.5],[1,0.5]];portConstraint=eastwest;" vertex="1" parent="PfIoUR0caZYvUuiIWkIY-49">
          <mxGeometry y="78" width="200" height="26" as="geometry" />
        </mxCell>
        <mxCell id="PfIoUR0caZYvUuiIWkIY-53" value="- hour : str&#xa;" style="text;align=left;verticalAlign=top;spacingLeft=4;spacingRight=4;overflow=hidden;rotatable=0;points=[[0,0.5],[1,0.5]];portConstraint=eastwest;" vertex="1" parent="PfIoUR0caZYvUuiIWkIY-49">
          <mxGeometry y="104" width="200" height="26" as="geometry" />
        </mxCell>
        <mxCell id="PfIoUR0caZYvUuiIWkIY-54" value="" style="line;html=1;strokeWidth=1;align=left;verticalAlign=middle;spacingTop=-1;spacingLeft=3;spacingRight=3;rotatable=0;labelPosition=right;points=[];portConstraint=eastwest;" vertex="1" parent="PfIoUR0caZYvUuiIWkIY-49">
          <mxGeometry y="130" width="200" height="22" as="geometry" />
        </mxCell>
        <mxCell id="PfIoUR0caZYvUuiIWkIY-55" value="+ get_user1_id(): int&#xa;" style="text;align=left;verticalAlign=top;spacingLeft=4;spacingRight=4;overflow=hidden;rotatable=0;points=[[0,0.5],[1,0.5]];portConstraint=eastwest;" vertex="1" parent="PfIoUR0caZYvUuiIWkIY-49">
          <mxGeometry y="152" width="200" height="26" as="geometry" />
        </mxCell>
        <mxCell id="PfIoUR0caZYvUuiIWkIY-56" value="+ get_user2_id(): int&#xa;" style="text;align=left;verticalAlign=top;spacingLeft=4;spacingRight=4;overflow=hidden;rotatable=0;points=[[0,0.5],[1,0.5]];portConstraint=eastwest;" vertex="1" parent="PfIoUR0caZYvUuiIWkIY-49">
          <mxGeometry y="178" width="200" height="26" as="geometry" />
        </mxCell>
        <mxCell id="PfIoUR0caZYvUuiIWkIY-57" value="+ get_hour (): str&#xa;" style="text;align=left;verticalAlign=top;spacingLeft=4;spacingRight=4;overflow=hidden;rotatable=0;points=[[0,0.5],[1,0.5]];portConstraint=eastwest;" vertex="1" parent="PfIoUR0caZYvUuiIWkIY-49">
          <mxGeometry y="204" width="200" height="26" as="geometry" />
        </mxCell>
        <mxCell id="PfIoUR0caZYvUuiIWkIY-58" value="+ get_date(): str&#xa;" style="text;align=left;verticalAlign=top;spacingLeft=4;spacingRight=4;overflow=hidden;rotatable=0;points=[[0,0.5],[1,0.5]];portConstraint=eastwest;" vertex="1" parent="PfIoUR0caZYvUuiIWkIY-49">
          <mxGeometry y="230" width="200" height="26" as="geometry" />
        </mxCell>
        <mxCell id="PfIoUR0caZYvUuiIWkIY-59" value="Paiement" style="swimlane;fontStyle=0;align=center;verticalAlign=top;childLayout=stackLayout;horizontal=1;startSize=26;horizontalStack=0;resizeParent=1;resizeLast=0;collapsible=1;marginBottom=0;rounded=0;shadow=0;strokeWidth=1;" vertex="1" parent="PfIoUR0caZYvUuiIWkIY-1">
          <mxGeometry x="1185" y="352.5" width="160" height="100" as="geometry">
            <mxRectangle x="550" y="140" width="160" height="26" as="alternateBounds" />
          </mxGeometry>
        </mxCell>
        <mxCell id="PfIoUR0caZYvUuiIWkIY-60" value="- id_bitcoin : str" style="text;align=left;verticalAlign=top;spacingLeft=4;spacingRight=4;overflow=hidden;rotatable=0;points=[[0,0.5],[1,0.5]];portConstraint=eastwest;" vertex="1" parent="PfIoUR0caZYvUuiIWkIY-59">
          <mxGeometry y="26" width="160" height="26" as="geometry" />
        </mxCell>
        <mxCell id="PfIoUR0caZYvUuiIWkIY-61" value="" style="line;html=1;strokeWidth=1;align=left;verticalAlign=middle;spacingTop=-1;spacingLeft=3;spacingRight=3;rotatable=0;labelPosition=right;points=[];portConstraint=eastwest;" vertex="1" parent="PfIoUR0caZYvUuiIWkIY-59">
          <mxGeometry y="52" width="160" height="8" as="geometry" />
        </mxCell>
        <mxCell id="PfIoUR0caZYvUuiIWkIY-62" value="+ get_id_bitcoin (): str" style="text;align=left;verticalAlign=top;spacingLeft=4;spacingRight=4;overflow=hidden;rotatable=0;points=[[0,0.5],[1,0.5]];portConstraint=eastwest;" vertex="1" parent="PfIoUR0caZYvUuiIWkIY-59">
          <mxGeometry y="60" width="160" height="26" as="geometry" />
        </mxCell>
        <mxCell id="PfIoUR0caZYvUuiIWkIY-63" value="Client" style="swimlane;fontStyle=0;align=center;verticalAlign=top;childLayout=stackLayout;horizontal=1;startSize=26;horizontalStack=0;resizeParent=1;resizeLast=0;collapsible=1;marginBottom=0;rounded=0;shadow=0;strokeWidth=1;" vertex="1" parent="PfIoUR0caZYvUuiIWkIY-1">
          <mxGeometry x="270" y="580" width="210" height="396" as="geometry">
            <mxRectangle x="130" y="380" width="160" height="26" as="alternateBounds" />
          </mxGeometry>
        </mxCell>
        <mxCell id="PfIoUR0caZYvUuiIWkIY-64" value="- lastname :   str" style="text;align=left;verticalAlign=top;spacingLeft=4;spacingRight=4;overflow=hidden;rotatable=0;points=[[0,0.5],[1,0.5]];portConstraint=eastwest;" vertex="1" parent="PfIoUR0caZYvUuiIWkIY-63">
          <mxGeometry y="26" width="210" height="26" as="geometry" />
        </mxCell>
        <mxCell id="PfIoUR0caZYvUuiIWkIY-65" value="- forname :   str" style="text;align=left;verticalAlign=top;spacingLeft=4;spacingRight=4;overflow=hidden;rotatable=0;points=[[0,0.5],[1,0.5]];portConstraint=eastwest;rounded=0;shadow=0;html=0;" vertex="1" parent="PfIoUR0caZYvUuiIWkIY-63">
          <mxGeometry y="52" width="210" height="26" as="geometry" />
        </mxCell>
        <mxCell id="PfIoUR0caZYvUuiIWkIY-66" value="- email  :   str" style="text;align=left;verticalAlign=top;spacingLeft=4;spacingRight=4;overflow=hidden;rotatable=0;points=[[0,0.5],[1,0.5]];portConstraint=eastwest;rounded=0;shadow=0;html=0;" vertex="1" parent="PfIoUR0caZYvUuiIWkIY-63">
          <mxGeometry y="78" width="210" height="26" as="geometry" />
        </mxCell>
        <mxCell id="PfIoUR0caZYvUuiIWkIY-67" value="- password :   str" style="text;align=left;verticalAlign=top;spacingLeft=4;spacingRight=4;overflow=hidden;rotatable=0;points=[[0,0.5],[1,0.5]];portConstraint=eastwest;rounded=0;shadow=0;html=0;" vertex="1" parent="PfIoUR0caZYvUuiIWkIY-63">
          <mxGeometry y="104" width="210" height="26" as="geometry" />
        </mxCell>
        <mxCell id="PfIoUR0caZYvUuiIWkIY-68" value="- age :    int" style="text;align=left;verticalAlign=top;spacingLeft=4;spacingRight=4;overflow=hidden;rotatable=0;points=[[0,0.5],[1,0.5]];portConstraint=eastwest;rounded=0;shadow=0;html=0;" vertex="1" parent="PfIoUR0caZYvUuiIWkIY-63">
          <mxGeometry y="130" width="210" height="26" as="geometry" />
        </mxCell>
        <mxCell id="PfIoUR0caZYvUuiIWkIY-69" value="- gender :    bool" style="text;align=left;verticalAlign=top;spacingLeft=4;spacingRight=4;overflow=hidden;rotatable=0;points=[[0,0.5],[1,0.5]];portConstraint=eastwest;rounded=0;shadow=0;html=0;" vertex="1" parent="PfIoUR0caZYvUuiIWkIY-63">
          <mxGeometry y="156" width="210" height="26" as="geometry" />
        </mxCell>
        <mxCell id="PfIoUR0caZYvUuiIWkIY-70" value="- IsConnected : bool" style="text;align=left;verticalAlign=top;spacingLeft=4;spacingRight=4;overflow=hidden;rotatable=0;points=[[0,0.5],[1,0.5]];portConstraint=eastwest;rounded=0;shadow=0;html=0;" vertex="1" parent="PfIoUR0caZYvUuiIWkIY-63">
          <mxGeometry y="182" width="210" height="26" as="geometry" />
        </mxCell>
        <mxCell id="PfIoUR0caZYvUuiIWkIY-71" value="" style="line;html=1;strokeWidth=1;align=left;verticalAlign=middle;spacingTop=-1;spacingLeft=3;spacingRight=3;rotatable=0;labelPosition=right;points=[];portConstraint=eastwest;" vertex="1" parent="PfIoUR0caZYvUuiIWkIY-63">
          <mxGeometry y="208" width="210" height="32" as="geometry" />
        </mxCell>
        <mxCell id="PfIoUR0caZYvUuiIWkIY-72" value="+ get_lastname (): str" style="text;align=left;verticalAlign=top;spacingLeft=4;spacingRight=4;overflow=hidden;rotatable=0;points=[[0,0.5],[1,0.5]];portConstraint=eastwest;rounded=0;shadow=0;html=0;" vertex="1" parent="PfIoUR0caZYvUuiIWkIY-63">
          <mxGeometry y="240" width="210" height="26" as="geometry" />
        </mxCell>
        <mxCell id="PfIoUR0caZYvUuiIWkIY-73" value="+ get_forname (): str" style="text;align=left;verticalAlign=top;spacingLeft=4;spacingRight=4;overflow=hidden;rotatable=0;points=[[0,0.5],[1,0.5]];portConstraint=eastwest;rounded=0;shadow=0;html=0;" vertex="1" parent="PfIoUR0caZYvUuiIWkIY-63">
          <mxGeometry y="266" width="210" height="26" as="geometry" />
        </mxCell>
        <mxCell id="PfIoUR0caZYvUuiIWkIY-74" value="+ get_IsConnected (): bool" style="text;align=left;verticalAlign=top;spacingLeft=4;spacingRight=4;overflow=hidden;rotatable=0;points=[[0,0.5],[1,0.5]];portConstraint=eastwest;rounded=0;shadow=0;html=0;" vertex="1" parent="PfIoUR0caZYvUuiIWkIY-63">
          <mxGeometry y="292" width="210" height="26" as="geometry" />
        </mxCell>
        <mxCell id="PfIoUR0caZYvUuiIWkIY-75" value="+ get_email(): str" style="text;align=left;verticalAlign=top;spacingLeft=4;spacingRight=4;overflow=hidden;rotatable=0;points=[[0,0.5],[1,0.5]];portConstraint=eastwest;rounded=0;shadow=0;html=0;" vertex="1" parent="PfIoUR0caZYvUuiIWkIY-63">
          <mxGeometry y="318" width="210" height="26" as="geometry" />
        </mxCell>
        <mxCell id="PfIoUR0caZYvUuiIWkIY-76" value="+ get_gender(): bool" style="text;align=left;verticalAlign=top;spacingLeft=4;spacingRight=4;overflow=hidden;rotatable=0;points=[[0,0.5],[1,0.5]];portConstraint=eastwest;rounded=0;shadow=0;html=0;" vertex="1" parent="PfIoUR0caZYvUuiIWkIY-63">
          <mxGeometry y="344" width="210" height="26" as="geometry" />
        </mxCell>
        <mxCell id="PfIoUR0caZYvUuiIWkIY-77" value="+ get_age(): int" style="text;align=left;verticalAlign=top;spacingLeft=4;spacingRight=4;overflow=hidden;rotatable=0;points=[[0,0.5],[1,0.5]];portConstraint=eastwest;rounded=0;shadow=0;html=0;" vertex="1" parent="PfIoUR0caZYvUuiIWkIY-63">
          <mxGeometry y="370" width="210" height="26" as="geometry" />
        </mxCell>
        <mxCell id="PfIoUR0caZYvUuiIWkIY-79" value="Profil tueur" style="swimlane;fontStyle=0;align=center;verticalAlign=top;childLayout=stackLayout;horizontal=1;startSize=26;horizontalStack=0;resizeParent=1;resizeLast=0;collapsible=1;marginBottom=0;rounded=0;shadow=0;strokeWidth=1;" vertex="1" parent="PfIoUR0caZYvUuiIWkIY-1">
          <mxGeometry x="583" y="290" width="202" height="294" as="geometry">
            <mxRectangle x="550" y="140" width="160" height="26" as="alternateBounds" />
          </mxGeometry>
        </mxCell>
        <mxCell id="PfIoUR0caZYvUuiIWkIY-80" value="- name: str" style="text;align=left;verticalAlign=top;spacingLeft=4;spacingRight=4;overflow=hidden;rotatable=0;points=[[0,0.5],[1,0.5]];portConstraint=eastwest;" vertex="1" parent="PfIoUR0caZYvUuiIWkIY-79">
          <mxGeometry y="26" width="202" height="26" as="geometry" />
        </mxCell>
        <mxCell id="PfIoUR0caZYvUuiIWkIY-81" value="- nationality : str" style="text;align=left;verticalAlign=top;spacingLeft=4;spacingRight=4;overflow=hidden;rotatable=0;points=[[0,0.5],[1,0.5]];portConstraint=eastwest;rounded=0;shadow=0;html=0;" vertex="1" parent="PfIoUR0caZYvUuiIWkIY-79">
          <mxGeometry y="52" width="202" height="26" as="geometry" />
        </mxCell>
        <mxCell id="PfIoUR0caZYvUuiIWkIY-82" value="- speciality : str" style="text;align=left;verticalAlign=top;spacingLeft=4;spacingRight=4;overflow=hidden;rotatable=0;points=[[0,0.5],[1,0.5]];portConstraint=eastwest;rounded=0;shadow=0;html=0;" vertex="1" parent="PfIoUR0caZYvUuiIWkIY-79">
          <mxGeometry y="78" width="202" height="26" as="geometry" />
        </mxCell>
        <mxCell id="PfIoUR0caZYvUuiIWkIY-83" value="- popularity : int" style="text;align=left;verticalAlign=top;spacingLeft=4;spacingRight=4;overflow=hidden;rotatable=0;points=[[0,0.5],[1,0.5]];portConstraint=eastwest;rounded=0;shadow=0;html=0;" vertex="1" parent="PfIoUR0caZYvUuiIWkIY-79">
          <mxGeometry y="104" width="202" height="26" as="geometry" />
        </mxCell>
        <mxCell id="PfIoUR0caZYvUuiIWkIY-84" value="- price: int" style="text;align=left;verticalAlign=top;spacingLeft=4;spacingRight=4;overflow=hidden;rotatable=0;points=[[0,0.5],[1,0.5]];portConstraint=eastwest;rounded=0;shadow=0;html=0;" vertex="1" parent="PfIoUR0caZYvUuiIWkIY-79">
          <mxGeometry y="130" width="202" height="26" as="geometry" />
        </mxCell>
        <mxCell id="PfIoUR0caZYvUuiIWkIY-85" value="" style="line;html=1;strokeWidth=1;align=left;verticalAlign=middle;spacingTop=-1;spacingLeft=3;spacingRight=3;rotatable=0;labelPosition=right;points=[];portConstraint=eastwest;" vertex="1" parent="PfIoUR0caZYvUuiIWkIY-79">
          <mxGeometry y="156" width="202" height="8" as="geometry" />
        </mxCell>
        <mxCell id="PfIoUR0caZYvUuiIWkIY-86" value="+ get_name() :str" style="text;align=left;verticalAlign=top;spacingLeft=4;spacingRight=4;overflow=hidden;rotatable=0;points=[[0,0.5],[1,0.5]];portConstraint=eastwest;rounded=0;shadow=0;html=0;" vertex="1" parent="PfIoUR0caZYvUuiIWkIY-79">
          <mxGeometry y="164" width="202" height="26" as="geometry" />
        </mxCell>
        <mxCell id="PfIoUR0caZYvUuiIWkIY-87" value="+ get_nationality() :str" style="text;align=left;verticalAlign=top;spacingLeft=4;spacingRight=4;overflow=hidden;rotatable=0;points=[[0,0.5],[1,0.5]];portConstraint=eastwest;rounded=0;shadow=0;html=0;" vertex="1" parent="PfIoUR0caZYvUuiIWkIY-79">
          <mxGeometry y="190" width="202" height="26" as="geometry" />
        </mxCell>
        <mxCell id="PfIoUR0caZYvUuiIWkIY-88" value="+ get_speciality() :str" style="text;align=left;verticalAlign=top;spacingLeft=4;spacingRight=4;overflow=hidden;rotatable=0;points=[[0,0.5],[1,0.5]];portConstraint=eastwest;rounded=0;shadow=0;html=0;" vertex="1" parent="PfIoUR0caZYvUuiIWkIY-79">
          <mxGeometry y="216" width="202" height="26" as="geometry" />
        </mxCell>
        <mxCell id="PfIoUR0caZYvUuiIWkIY-89" value="+ get_popularity() : int" style="text;align=left;verticalAlign=top;spacingLeft=4;spacingRight=4;overflow=hidden;rotatable=0;points=[[0,0.5],[1,0.5]];portConstraint=eastwest;rounded=0;shadow=0;html=0;" vertex="1" parent="PfIoUR0caZYvUuiIWkIY-79">
          <mxGeometry y="242" width="202" height="26" as="geometry" />
        </mxCell>
        <mxCell id="PfIoUR0caZYvUuiIWkIY-90" value="+ get_price() : int" style="text;align=left;verticalAlign=top;spacingLeft=4;spacingRight=4;overflow=hidden;rotatable=0;points=[[0,0.5],[1,0.5]];portConstraint=eastwest;rounded=0;shadow=0;html=0;" vertex="1" parent="PfIoUR0caZYvUuiIWkIY-79">
          <mxGeometry y="268" width="202" height="26" as="geometry" />
        </mxCell>
      </root>
    </mxGraphModel>
  </diagram>
</mxfile>
